<?xml version="1.0" encoding="utf-8"?>
<!-- Generator: Adobe Illustrator 18.1.1, SVG Export Plug-In . SVG Version: 6.00 Build 0)  -->
<svg version="1.1" id="Layer_1" xmlns="http://www.w3.org/2000/svg" xmlns:xlink="http://www.w3.org/1999/xlink" x="0px" y="0px"
	 viewBox="0 0 78.4 76" enable-background="new 0 0 78.4 76" xml:space="preserve">
<g>
	<g>
		<circle fill="#494645" stroke="#FFFFFF" stroke-width="2" stroke-miterlimit="10" cx="-73.8" cy="-306.4" r="28.7"/>
		<circle fill="#494645" stroke="#FFFFFF" stroke-miterlimit="10" cx="-73.8" cy="-306.4" r="25.7"/>
	</g>
	<text transform="matrix(1 0 0 1 -55.7617 -279.9724)" fill="#494645" font-family="'Lato-Regular'" font-size="4.397">TM</text>
	<path fill="none" stroke="#FFFFFF" stroke-width="2" stroke-miterlimit="10" d="M-82.9-318.1l-0.4,27.8c0,0,9.4-1.8,9.6-11.4
		s-8.9-9.7-8.9-9.7s5.9-0.2,6.2-4.9s-4.1-5.9-6.4-5.9s-8.2,2.7-8.1,8.8s7.6,8.7,7.6,8.7"/>
	<path fill="none" stroke="#000000" stroke-miterlimit="10" d="M-54.8-336.3"/>
	<path fill="none" stroke="#FFFFFF" stroke-width="2" stroke-miterlimit="10" d="M-62.4-321.9c0,0-9.8,5.7-9.9,15.6
		c-0.1,9.9,9.1,15.5,9.1,15.5l0.2-19l-3.3,0.9"/>
</g>
<g>
	<g>
		<circle fill="#494645" stroke="#FFFFFF" stroke-width="2" stroke-miterlimit="10" cx="36.8" cy="-306.4" r="28.7"/>
		<circle fill="#494645" stroke="#FFFFFF" stroke-miterlimit="10" cx="36.8" cy="-306.4" r="25.7"/>
	</g>
	<text transform="matrix(1 0 0 1 54.7383 -279.9724)" fill="#494645" font-family="'Lato-Regular'" font-size="4.397">TM</text>
	<path fill="none" stroke="#FFFFFF" stroke-width="2" stroke-miterlimit="10" d="M27.6-318.1l-0.4,27.8c0,0,9.4-1.8,9.6-11.4
		s-8.9-9.7-8.9-9.7s5.9-0.2,6.2-4.9s-4.1-5.9-6.4-5.9s-8.2,2.7-8.1,8.8S27-305,27-305"/>
	<path fill="none" stroke="#000000" stroke-miterlimit="10" d="M55.7-336.3"/>
	<path fill="none" stroke="#FFFFFF" stroke-width="2" stroke-miterlimit="10" d="M48.1-321.9c0,0-9.8,5.7-9.9,15.6
		c-0.1,9.9,9.1,15.5,9.1,15.5l0.2-19l-3.3,0.9"/>
</g>
<text transform="matrix(1 0 0 1 78.4163 -285.3154)" fill="#494645" font-family="'Didot-Bold'" font-size="60" letter-spacing="3">BRIDAL GALLERY</text>
<rect id="_x3C_Slice_x3E_" x="-0.5" y="-345" fill="none" width="716" height="74"/>
<g>
	<circle fill="#494645" stroke="#FFFFFF" stroke-width="2" stroke-miterlimit="10" cx="36.5" cy="-187.4" r="28.7"/>
	<circle fill="#FFFFFF" stroke="#494645" stroke-miterlimit="10" cx="36.5" cy="-187.4" r="25.7"/>
	<text transform="matrix(1 0 0 1 57.3633 -160.2224)" fill="#FFFFFF" font-family="'Lato-Regular'" font-size="4.397">TM</text>
	<path fill="none" stroke="#494645" stroke-width="2" stroke-miterlimit="10" d="M27.3-199.1l-0.4,27.8c0,0,9.4-1.8,9.6-11.4
		s-8.9-9.7-8.9-9.7s5.9-0.2,6.2-4.9s-4.1-5.9-6.4-5.9s-8.2,2.7-8.1,8.8s7.6,8.7,7.6,8.7"/>
	<path fill="none" stroke="#000000" stroke-miterlimit="10" d="M55.4-217.3"/>
	<path fill="none" stroke="#494645" stroke-width="2" stroke-miterlimit="10" d="M47.9-202.9c0,0-9.8,5.7-9.9,15.6
		c-0.1,9.9,9.1,15.5,9.1,15.5l0.2-19l-3.3,0.9"/>
</g>
<text transform="matrix(1 0 0 1 12.0436 -57.6401)" fill="#FFFFFF" font-family="'Didot-Bold'" font-size="60" letter-spacing="3">BRIDAL GALLERY</text>
<rect id="_x3C_Slice_x3E__1_" x="73.5" y="-228" fill="none" width="630" height="76"/>
<circle fill="none" stroke="#FFFFFF" stroke-width="2" stroke-miterlimit="10" cx="38" cy="38.6" r="28.7"/>
<text transform="matrix(1 0 0 1 58.8436 65.7776)" fill="#FFFFFF" font-family="'Lato-Regular'" font-size="4.397">TM</text>
<path fill="none" stroke="#000000" stroke-miterlimit="10" d="M56.9,8.7"/>
<g>
	<path fill="#FFFFFF" d="M29.7,34.5l-0.3,18.8c2.4-0.8,7.5-3.4,7.5-10.1c0-2.7-0.7-4.8-2.1-6.2C33.1,35.2,30.8,34.7,29.7,34.5z"/>
	<path fill="#FFFFFF" d="M29.7,32.4c1.4-0.2,4.4-1,4.5-3.9c0.1-1.3-0.3-2.4-1.1-3.2c-1.2-1.2-3.1-1.7-4.4-1.7c-1.1,0-3.3,0.8-5,2.5
		c-1.4,1.5-2.2,3.2-2.1,5.3c0,4.1,4.1,6.5,6,7.4l0.2-11.9l2,0L29.7,32.4z"/>
	<path fill="#FFFFFF" d="M38,12.9c-14.2,0-25.7,11.5-25.7,25.7c0,14.2,11.5,25.7,25.7,25.7s25.7-11.5,25.7-25.7
		C63.6,24.4,52.2,12.9,38,12.9z M45.7,37l-0.5-1.9l4.5-1.3l-0.2,22.1L48,55c-0.3-0.2-7.1-4.4-9-12.1c0,0.1,0,0.2,0,0.2
		c-0.1,10.3-10.3,12.4-10.4,12.4l-1.2,0.2l0.2-14.9c-1.5-0.6-7.9-3.5-7.9-9.5c0-2.6,0.9-4.9,2.7-6.7c2-2,4.7-3.1,6.4-3.1
		c1.8,0,4.2,0.6,5.8,2.3c1.2,1.2,1.7,2.8,1.6,4.7c-0.1,2.4-1.5,3.9-3.1,4.8c1.1,0.4,2.2,1.1,3.2,2.1c1,1,1.8,2.3,2.2,3.8
		c0-0.2,0-0.4,0-0.6c0.1-10.4,10-16.2,10.4-16.4l1,1.7c-0.1,0.1-9.3,5.5-9.4,14.7c-0.1,6.8,4.6,11.5,7.1,13.5l0.1-15.7L45.7,37z"/>
</g>
</svg>
